<svg width="3039" height="536" xmlns="http://www.w3.org/2000/svg" xmlns:xlink="http://www.w3.org/1999/xlink" xml:space="preserve" overflow="hidden"><defs><clipPath id="clip0"><rect x="1764" y="330" width="3039" height="536"/></clipPath></defs><g clip-path="url(#clip0)" transform="translate(-1764 -330)"><path d="M1852.5 555.5C1852.5 432.34 1952.34 332.5 2075.5 332.5 2198.66 332.5 2298.5 432.34 2298.5 555.5 2298.5 678.66 2198.66 778.5 2075.5 778.5 1952.34 778.5 1852.5 678.66 1852.5 555.5Z" stroke="#000000" stroke-width="4.58333" stroke-linecap="butt" stroke-linejoin="miter" stroke-miterlimit="8" stroke-opacity="1" fill="none" fill-rule="evenodd"/><text fill="#000000" fill-opacity="1" font-family="Calibri,Calibri_MSFontService,sans-serif" font-style="normal" font-variant="normal" font-weight="400" font-stretch="normal" font-size="128" text-anchor="start" direction="ltr" writing-mode="lr-tb" unicode-bidi="normal" text-decoration="none" transform="matrix(1 0 0 1 2042.62 598)">1</text><path d="M2685.5 556C2685.5 432.564 2785.34 332.5 2908.5 332.5 3031.66 332.5 3131.5 432.564 3131.5 556 3131.5 679.436 3031.66 779.5 2908.5 779.5 2785.34 779.5 2685.5 679.436 2685.5 556Z" stroke="#000000" stroke-width="4.58333" stroke-linecap="butt" stroke-linejoin="miter" stroke-miterlimit="8" stroke-opacity="1" fill="none" fill-rule="evenodd"/><text fill="#000000" fill-opacity="1" font-family="Calibri,Calibri_MSFontService,sans-serif" font-style="normal" font-variant="normal" font-weight="400" font-stretch="normal" font-size="128" text-anchor="start" direction="ltr" writing-mode="lr-tb" unicode-bidi="normal" text-decoration="none" transform="matrix(1 0 0 1 2875.53 599)">2</text><path d="M3518.5 555.5C3518.5 432.34 3618.34 332.5 3741.5 332.5 3864.66 332.5 3964.5 432.34 3964.5 555.5 3964.5 678.66 3864.66 778.5 3741.5 778.5 3618.34 778.5 3518.5 678.66 3518.5 555.5Z" stroke="#000000" stroke-width="4.58333" stroke-linecap="butt" stroke-linejoin="miter" stroke-miterlimit="8" stroke-opacity="1" fill="none" fill-rule="evenodd"/><text fill="#000000" fill-opacity="1" font-family="Calibri,Calibri_MSFontService,sans-serif" font-style="normal" font-variant="normal" font-weight="400" font-stretch="normal" font-size="128" text-anchor="start" direction="ltr" writing-mode="lr-tb" unicode-bidi="normal" text-decoration="none" transform="matrix(1 0 0 1 3708.45 598)">3</text><path d="M4351.5 555.5C4351.5 432.34 4451.34 332.5 4574.5 332.5 4697.66 332.5 4797.5 432.34 4797.5 555.5 4797.5 678.66 4697.66 778.5 4574.5 778.5 4451.34 778.5 4351.5 678.66 4351.5 555.5Z" stroke="#000000" stroke-width="4.58333" stroke-linecap="butt" stroke-linejoin="miter" stroke-miterlimit="8" stroke-opacity="1" fill="none" fill-rule="evenodd"/><text fill="#000000" fill-opacity="1" font-family="Calibri,Calibri_MSFontService,sans-serif" font-style="normal" font-variant="normal" font-weight="400" font-stretch="normal" font-size="128" text-anchor="start" direction="ltr" writing-mode="lr-tb" unicode-bidi="normal" text-decoration="none" transform="matrix(1 0 0 1 4541.36 598)">4</text><path d="M0.0654817 1.14396-3.80044 1.36525-3.67427 1.35098-7.53264 2.00553-7.41594 1.97941-11.2592 3.05325-11.1539 3.01823-14.9745 4.49738-14.8811 4.45636-18.6715 6.32684-18.5897 6.28229-22.3424 8.53012-22.2397 8.4608-29.6014 14.0326-29.4947 13.9411-36.6147 20.8546-36.5344 20.7681-43.3523 28.9116-43.2909 28.8312-49.7462 38.0928-49.6983 38.018-55.7307 48.2858-55.6926 48.2155-61.2416 59.3778-61.2108 59.3106-66.216 71.2555-66.1909 71.1901-70.5919 83.806-70.5714 83.7412-74.3077 96.916-74.2912 96.8507-77.3024 110.473-77.2896 110.406-79.5153 124.364-79.5064 124.294-80.8861 138.475-80.8813 138.402-81.3546 152.695-81.3546 152.622-81.1328 159.775-81.1371 159.706-80.4812 166.845-80.4893 166.779-79.4133 173.89-79.4247 173.827-77.9426 180.896-77.957 180.836-76.0827 187.849-76.0998 187.792-73.8474 194.735-73.8771 194.654-68.2939 208.276-68.3399 208.178-61.4123 221.353-61.4643 221.264-53.3043 233.879-53.3615 233.799-44.0811 245.744-44.1434 245.67-33.8546 256.832-33.9223 256.765-22.7372 267.033-22.8108 266.971-10.8415 276.232-10.9222 276.175 1.71939 284.319 1.63045 284.267 14.8322 291.18 14.7337 291.135 28.3836 296.706 28.3028 296.677 35.2608 298.925 35.2033 298.908 42.2313 300.778 42.1708 300.764 49.2548 302.243 49.1914 302.232 56.3174 303.305 56.2511 303.297 63.4052 303.952 63.3361 303.948 70.5042 304.169 70.431 304.169 84.7531 303.696 84.6802 303.701 98.8903 302.321 98.821 302.33 112.807 300.104 112.74 300.117 126.39 297.106 126.325 297.122 139.527 293.386 139.462 293.406 152.104 289.005 152.038 289.03 164.008 284.025 163.94 284.056 175.126 278.507 175.055 278.545 185.344 272.512 185.269 272.56 194.55 266.105 194.469 266.166 202.629 259.348 202.543 259.429 209.471 252.309 209.298 252.538 214.368 243.692 216.357 244.832 211.214 253.803 204.144 261.069 195.9 267.957 186.541 274.467 176.18 280.542 164.926 286.125 152.89 291.158 140.183 295.582 126.917 299.336 113.201 302.362 99.1466 304.598 84.8653 305.985 70.4701 306.461 63.2308 306.237 56.009 305.577 48.818 304.493 41.6719 303.001 34.5849 301.115 27.5574 298.844 13.8172 293.236 0.521664 286.273-12.2048 278.075-24.2514 268.754-35.5072 258.421-45.8612 247.188-55.2016 235.166-63.4166 222.465-70.3937 209.196-76.0139 195.484-78.2889 188.47-80.1791 181.397-81.6743 174.265-82.7602 167.088-83.4223 159.881-83.6463 152.656-83.1705 138.29-81.7839 124.037-79.5474 110.011-76.5216 96.3232-72.7668 83.0832-68.3432 70.4022-63.3102 58.3908-57.7269 47.1595-51.6517 36.8188-45.1419 27.4793-38.2536 19.2517-31.0406 12.2479-23.5732 6.59606-19.7274 4.2924-15.8494 2.37871-11.9294 0.861069-7.97497-0.243836-3.99488-0.919037-0.0654817-1.14396ZM200.879 243.706 223.438 222.815 226.616 253.396Z" fill="#000000" fill-rule="nonzero" fill-opacity="1" transform="matrix(-6.12323e-17 -1 -1 6.12323e-17 2074.82 778.438)"/><path d="M0.0654817 1.14396-3.80044 1.36525-3.67427 1.35098-7.53264 2.00553-7.41594 1.97941-11.2592 3.05325-11.1539 3.01823-14.9745 4.49738-14.8811 4.45636-18.6715 6.32684-18.5897 6.28229-22.3424 8.53012-22.2397 8.4608-29.6014 14.0326-29.4947 13.9411-36.6147 20.8546-36.5344 20.7681-43.3523 28.9116-43.2909 28.8312-49.7462 38.0928-49.6983 38.018-55.7307 48.2858-55.6926 48.2155-61.2416 59.3778-61.2108 59.3106-66.216 71.2555-66.1909 71.1901-70.5919 83.806-70.5714 83.7412-74.3077 96.916-74.2912 96.8507-77.3024 110.473-77.2896 110.406-79.5153 124.364-79.5064 124.294-80.8861 138.475-80.8813 138.402-81.3546 152.695-81.3546 152.622-81.1328 159.775-81.1371 159.706-80.4812 166.845-80.4893 166.779-79.4133 173.89-79.4247 173.827-77.9426 180.896-77.957 180.836-76.0827 187.849-76.0998 187.792-73.8474 194.735-73.8771 194.654-68.2939 208.276-68.3399 208.178-61.4123 221.353-61.4643 221.264-53.3043 233.879-53.3615 233.799-44.0811 245.744-44.1434 245.67-33.8546 256.832-33.9223 256.765-22.7372 267.033-22.8108 266.971-10.8415 276.232-10.9222 276.175 1.71939 284.319 1.63045 284.267 14.8322 291.18 14.7337 291.135 28.3836 296.706 28.3028 296.677 35.2608 298.925 35.2033 298.908 42.2313 300.778 42.1708 300.764 49.2548 302.243 49.1914 302.232 56.3174 303.305 56.2511 303.297 63.4052 303.952 63.3361 303.948 70.5042 304.169 70.431 304.169 84.7531 303.696 84.6802 303.701 98.8903 302.321 98.821 302.33 112.807 300.104 112.74 300.117 126.39 297.106 126.325 297.122 139.527 293.386 139.462 293.406 152.104 289.005 152.038 289.03 164.008 284.025 163.94 284.056 175.126 278.507 175.055 278.545 185.344 272.512 185.269 272.56 194.55 266.105 194.469 266.166 202.629 259.348 202.543 259.429 209.471 252.309 209.298 252.538 214.368 243.692 216.357 244.832 211.214 253.803 204.144 261.069 195.9 267.957 186.541 274.467 176.18 280.542 164.926 286.125 152.89 291.158 140.183 295.582 126.917 299.336 113.201 302.362 99.1466 304.598 84.8653 305.985 70.4701 306.461 63.2308 306.237 56.009 305.577 48.818 304.493 41.6719 303.001 34.5849 301.115 27.5574 298.844 13.8172 293.236 0.521664 286.273-12.2048 278.075-24.2514 268.754-35.5072 258.421-45.8612 247.188-55.2016 235.166-63.4166 222.465-70.3937 209.196-76.0139 195.484-78.2889 188.47-80.1791 181.397-81.6743 174.265-82.7602 167.088-83.4223 159.881-83.6463 152.656-83.1705 138.29-81.7839 124.037-79.5474 110.011-76.5216 96.3232-72.7668 83.0832-68.3432 70.4022-63.3102 58.3908-57.7269 47.1595-51.6517 36.8188-45.1419 27.4793-38.2536 19.2517-31.0406 12.2479-23.5732 6.59606-19.7274 4.2924-15.8494 2.37871-11.9294 0.861069-7.97497-0.243836-3.99488-0.919037-0.0654817-1.14396ZM200.879 243.706 223.438 222.815 226.616 253.396Z" fill="#000000" fill-rule="nonzero" fill-opacity="1" transform="matrix(-6.12323e-17 -1 -1 6.12323e-17 3740.82 778.438)"/><path d="M0.0654817 1.14396-3.80044 1.36525-3.67427 1.35098-7.53264 2.00553-7.41594 1.97941-11.2592 3.05325-11.1539 3.01823-14.9745 4.49738-14.8811 4.45636-18.6715 6.32684-18.5897 6.28229-22.3424 8.53012-22.2397 8.4608-29.6014 14.0326-29.4947 13.9411-36.6147 20.8546-36.5344 20.7681-43.3523 28.9116-43.2909 28.8312-49.7462 38.0928-49.6983 38.018-55.7307 48.2858-55.6926 48.2155-61.2416 59.3778-61.2108 59.3106-66.216 71.2555-66.1909 71.1901-70.5919 83.806-70.5714 83.7412-74.3077 96.916-74.2912 96.8507-77.3024 110.473-77.2896 110.406-79.5153 124.364-79.5064 124.294-80.8861 138.475-80.8813 138.402-81.3546 152.695-81.3546 152.622-81.1328 159.775-81.1371 159.706-80.4812 166.845-80.4893 166.779-79.4133 173.89-79.4247 173.827-77.9426 180.896-77.957 180.836-76.0827 187.849-76.0998 187.792-73.8474 194.735-73.8771 194.654-68.2939 208.276-68.3399 208.178-61.4123 221.353-61.4643 221.264-53.3043 233.879-53.3615 233.799-44.0811 245.744-44.1434 245.67-33.8546 256.832-33.9223 256.765-22.7372 267.033-22.8108 266.971-10.8415 276.232-10.9222 276.175 1.71939 284.319 1.63045 284.267 14.8322 291.18 14.7337 291.135 28.3836 296.706 28.3028 296.677 35.2608 298.925 35.2033 298.908 42.2313 300.778 42.1708 300.764 49.2548 302.243 49.1914 302.232 56.3174 303.305 56.2511 303.297 63.4052 303.952 63.3361 303.948 70.5042 304.169 70.431 304.169 84.7531 303.696 84.6802 303.701 98.8903 302.321 98.821 302.33 112.807 300.104 112.74 300.117 126.39 297.106 126.325 297.122 139.527 293.386 139.462 293.406 152.104 289.005 152.038 289.03 164.008 284.025 163.94 284.056 175.126 278.507 175.055 278.545 185.344 272.512 185.269 272.56 194.55 266.105 194.469 266.166 202.629 259.348 202.543 259.429 209.471 252.309 209.298 252.538 214.368 243.692 216.357 244.832 211.214 253.803 204.144 261.069 195.9 267.957 186.541 274.467 176.18 280.542 164.926 286.125 152.89 291.158 140.183 295.582 126.917 299.336 113.201 302.362 99.1466 304.598 84.8653 305.985 70.4701 306.461 63.2308 306.237 56.009 305.577 48.818 304.493 41.6719 303.001 34.5849 301.115 27.5574 298.844 13.8172 293.236 0.521664 286.273-12.2048 278.075-24.2514 268.754-35.5072 258.421-45.8612 247.188-55.2016 235.166-63.4166 222.465-70.3937 209.196-76.0139 195.484-78.2889 188.47-80.1791 181.397-81.6743 174.265-82.7602 167.088-83.4223 159.881-83.6463 152.656-83.1705 138.29-81.7839 124.037-79.5474 110.011-76.5216 96.3232-72.7668 83.0832-68.3432 70.4022-63.3102 58.3908-57.7269 47.1595-51.6517 36.8188-45.1419 27.4793-38.2536 19.2517-31.0406 12.2479-23.5732 6.59606-19.7274 4.2924-15.8494 2.37871-11.9294 0.861069-7.97497-0.243836-3.99488-0.919037-0.0654817-1.14396ZM200.879 243.706 223.438 222.815 226.616 253.396Z" fill="#000000" fill-rule="nonzero" fill-opacity="1" transform="matrix(-6.12323e-17 -1 -1 6.12323e-17 2907.82 779.437)"/><path d="M0.0654817 1.14396-3.80044 1.36525-3.67427 1.35098-7.53264 2.00553-7.41594 1.97941-11.2592 3.05325-11.1539 3.01823-14.9745 4.49738-14.8811 4.45636-18.6715 6.32684-18.5897 6.28229-22.3424 8.53012-22.2397 8.4608-29.6014 14.0326-29.4947 13.9411-36.6147 20.8546-36.5344 20.7681-43.3523 28.9116-43.2909 28.8312-49.7462 38.0928-49.6983 38.018-55.7307 48.2858-55.6926 48.2155-61.2416 59.3778-61.2108 59.3106-66.216 71.2555-66.1909 71.1901-70.5919 83.806-70.5714 83.7412-74.3077 96.916-74.2912 96.8507-77.3024 110.473-77.2896 110.406-79.5153 124.364-79.5064 124.294-80.8861 138.475-80.8813 138.402-81.3546 152.695-81.3546 152.622-81.1328 159.775-81.1371 159.706-80.4812 166.845-80.4893 166.779-79.4133 173.89-79.4247 173.827-77.9426 180.896-77.957 180.836-76.0827 187.849-76.0998 187.792-73.8474 194.735-73.8771 194.654-68.2939 208.276-68.3399 208.178-61.4123 221.353-61.4643 221.264-53.3043 233.879-53.3615 233.799-44.0811 245.744-44.1434 245.67-33.8546 256.832-33.9223 256.765-22.7372 267.033-22.8108 266.971-10.8415 276.232-10.9222 276.175 1.71939 284.319 1.63045 284.267 14.8322 291.18 14.7337 291.135 28.3836 296.706 28.3028 296.677 35.2608 298.925 35.2033 298.908 42.2313 300.778 42.1708 300.764 49.2548 302.243 49.1914 302.232 56.3174 303.305 56.2511 303.297 63.4052 303.952 63.3361 303.948 70.5042 304.169 70.431 304.169 84.7531 303.696 84.6802 303.701 98.8903 302.321 98.821 302.33 112.807 300.104 112.74 300.117 126.39 297.106 126.325 297.122 139.527 293.386 139.462 293.406 152.104 289.005 152.038 289.03 164.008 284.025 163.94 284.056 175.126 278.507 175.055 278.545 185.344 272.512 185.269 272.56 194.55 266.105 194.469 266.166 202.629 259.348 202.543 259.429 209.471 252.309 209.298 252.538 214.368 243.692 216.357 244.832 211.214 253.803 204.144 261.069 195.9 267.957 186.541 274.467 176.18 280.542 164.926 286.125 152.89 291.158 140.183 295.582 126.917 299.336 113.201 302.362 99.1466 304.598 84.8653 305.985 70.4701 306.461 63.2308 306.237 56.009 305.577 48.818 304.493 41.6719 303.001 34.5849 301.115 27.5574 298.844 13.8172 293.236 0.521664 286.273-12.2048 278.075-24.2514 268.754-35.5072 258.421-45.8612 247.188-55.2016 235.166-63.4166 222.465-70.3937 209.196-76.0139 195.484-78.2889 188.47-80.1791 181.397-81.6743 174.265-82.7602 167.088-83.4223 159.881-83.6463 152.656-83.1705 138.29-81.7839 124.037-79.5474 110.011-76.5216 96.3232-72.7668 83.0832-68.3432 70.4022-63.3102 58.3908-57.7269 47.1595-51.6517 36.8188-45.1419 27.4793-38.2536 19.2517-31.0406 12.2479-23.5732 6.59606-19.7274 4.2924-15.8494 2.37871-11.9294 0.861069-7.97497-0.243836-3.99488-0.919037-0.0654817-1.14396ZM200.879 243.706 223.438 222.815 226.616 253.396Z" fill="#000000" fill-rule="nonzero" fill-opacity="1" transform="matrix(-6.12323e-17 -1 -1 6.12323e-17 4573.81 778.438)"/></g></svg>