<svg width="3039" height="536" xmlns="http://www.w3.org/2000/svg" xmlns:xlink="http://www.w3.org/1999/xlink" xml:space="preserve" overflow="hidden"><defs><clipPath id="clip0"><rect x="1764" y="330" width="3039" height="536"/></clipPath></defs><g clip-path="url(#clip0)" transform="translate(-1764 -330)"><path d="M1852.5 555.5C1852.5 432.34 1952.34 332.5 2075.5 332.5 2198.66 332.5 2298.5 432.34 2298.5 555.5 2298.5 678.66 2198.66 778.5 2075.5 778.5 1952.34 778.5 1852.5 678.66 1852.5 555.5Z" stroke="#000000" stroke-width="4.58333" stroke-linecap="butt" stroke-linejoin="miter" stroke-miterlimit="8" stroke-opacity="1" fill="none" fill-rule="evenodd"/><text fill="#000000" fill-opacity="1" font-family="Calibri,Calibri_MSFontService,sans-serif" font-style="normal" font-variant="normal" font-weight="400" font-stretch="normal" font-size="128" text-anchor="start" direction="ltr" writing-mode="lr-tb" unicode-bidi="normal" text-decoration="none" transform="matrix(1 0 0 1 2042.62 598)">1</text><path d="M2685.5 556C2685.5 432.564 2785.34 332.5 2908.5 332.5 3031.66 332.5 3131.5 432.564 3131.5 556 3131.5 679.436 3031.66 779.5 2908.5 779.5 2785.34 779.5 2685.5 679.436 2685.5 556Z" stroke="#000000" stroke-width="4.58333" stroke-linecap="butt" stroke-linejoin="miter" stroke-miterlimit="8" stroke-opacity="1" fill="none" fill-rule="evenodd"/><text fill="#000000" fill-opacity="1" font-family="Calibri,Calibri_MSFontService,sans-serif" font-style="normal" font-variant="normal" font-weight="400" font-stretch="normal" font-size="128" text-anchor="start" direction="ltr" writing-mode="lr-tb" unicode-bidi="normal" text-decoration="none" transform="matrix(1 0 0 1 2875.53 599)">2</text><path d="M3518.5 555.5C3518.5 432.34 3618.34 332.5 3741.5 332.5 3864.66 332.5 3964.5 432.34 3964.5 555.5 3964.5 678.66 3864.66 778.5 3741.5 778.5 3618.34 778.5 3518.5 678.66 3518.5 555.5Z" stroke="#000000" stroke-width="4.58333" stroke-linecap="butt" stroke-linejoin="miter" stroke-miterlimit="8" stroke-opacity="1" fill="none" fill-rule="evenodd"/><text fill="#000000" fill-opacity="1" font-family="Calibri,Calibri_MSFontService,sans-serif" font-style="normal" font-variant="normal" font-weight="400" font-stretch="normal" font-size="128" text-anchor="start" direction="ltr" writing-mode="lr-tb" unicode-bidi="normal" text-decoration="none" transform="matrix(1 0 0 1 3708.45 598)">3</text><path d="M4351.5 555.5C4351.5 432.34 4451.34 332.5 4574.5 332.5 4697.66 332.5 4797.5 432.34 4797.5 555.5 4797.5 678.66 4697.66 778.5 4574.5 778.5 4451.34 778.5 4351.5 678.66 4351.5 555.5Z" stroke="#000000" stroke-width="4.58333" stroke-linecap="butt" stroke-linejoin="miter" stroke-miterlimit="8" stroke-opacity="1" fill="none" fill-rule="evenodd"/><text fill="#000000" fill-opacity="1" font-family="Calibri,Calibri_MSFontService,sans-serif" font-style="normal" font-variant="normal" font-weight="400" font-stretch="normal" font-size="128" text-anchor="start" direction="ltr" writing-mode="lr-tb" unicode-bidi="normal" text-decoration="none" transform="matrix(1 0 0 1 4541.36 598)">4</text><path d="M0.0654817 1.14396-3.80044 1.36525-3.67427 1.35098-7.53264 2.00553-7.41594 1.97941-11.2592 3.05325-11.1539 3.01823-14.9745 4.49738-14.8811 4.45636-18.6715 6.32684-18.5897 6.28229-22.3424 8.53012-22.2397 8.4608-29.6014 14.0326-29.4947 13.9411-36.6147 20.8546-36.5344 20.7681-43.3523 28.9116-43.2909 28.8312-49.7462 38.0928-49.6983 38.018-55.7307 48.2858-55.6926 48.2155-61.2416 59.3778-61.2108 59.3106-66.216 71.2555-66.1909 71.1901-70.5919 83.806-70.5714 83.7412-74.3077 96.916-74.2912 96.8507-77.3024 110.473-77.2896 110.406-79.5153 124.364-79.5064 124.294-80.8861 138.475-80.8813 138.402-81.3546 152.695-81.3546 152.622-81.1328 159.775-81.1371 159.706-80.4812 166.845-80.4893 166.779-79.4133 173.89-79.4247 173.827-77.9426 180.896-77.957 180.836-76.0827 187.849-76.0998 187.792-73.8474 194.735-73.8771 194.654-68.2939 208.276-68.3399 208.178-61.4123 221.353-61.4643 221.264-53.3043 233.879-53.3615 233.799-44.0811 245.744-44.1434 245.67-33.8546 256.832-33.9223 256.765-22.7372 267.033-22.8108 266.971-10.8415 276.232-10.9222 276.175 1.71939 284.319 1.63045 284.267 14.8322 291.18 14.7337 291.135 28.3836 296.706 28.3028 296.677 35.2608 298.925 35.2033 298.908 42.2313 300.778 42.1708 300.764 49.2548 302.243 49.1914 302.232 56.3174 303.305 56.2511 303.297 63.4052 303.952 63.3361 303.948 70.5042 304.169 70.431 304.169 84.7531 303.696 84.6802 303.701 98.8903 302.321 98.821 302.33 112.807 300.104 112.74 300.117 126.39 297.106 126.325 297.122 139.527 293.386 139.462 293.406 152.104 289.005 152.038 289.03 164.008 284.025 163.94 284.056 175.126 278.507 175.055 278.545 185.344 272.512 185.269 272.56 194.55 266.105 194.469 266.166 202.629 259.348 202.543 259.429 209.471 252.309 209.298 252.538 214.368 243.692 216.357 244.832 211.214 253.803 204.144 261.069 195.9 267.957 186.541 274.467 176.18 280.542 164.926 286.125 152.89 291.158 140.183 295.582 126.917 299.336 113.201 302.362 99.1466 304.598 84.8653 305.985 70.4701 306.461 63.2308 306.237 56.009 305.577 48.818 304.493 41.6719 303.001 34.5849 301.115 27.5574 298.844 13.8172 293.236 0.521664 286.273-12.2048 278.075-24.2514 268.754-35.5072 258.421-45.8612 247.188-55.2016 235.166-63.4166 222.465-70.3937 209.196-76.0139 195.484-78.2889 188.47-80.1791 181.397-81.6743 174.265-82.7602 167.088-83.4223 159.881-83.6463 152.656-83.1705 138.29-81.7839 124.037-79.5474 110.011-76.5216 96.3232-72.7668 83.0832-68.3432 70.4022-63.3102 58.3908-57.7269 47.1595-51.6517 36.8188-45.1419 27.4793-38.2536 19.2517-31.0406 12.2479-23.5732 6.59606-19.7274 4.2924-15.8494 2.37871-11.9294 0.861069-7.97497-0.243836-3.99488-0.919037-0.0654817-1.14396ZM200.879 243.706 223.438 222.815 226.616 253.396Z" fill="#000000" fill-rule="nonzero" fill-opacity="1" transform="matrix(-6.12323e-17 -1 -1 6.12323e-17 2074.82 778.438)"/><path d="M0.161198 1.13444-1.77226 1.40917-1.4866 1.32984-3.41911 2.14829-3.20819 2.03141-5.13881 3.38495-4.99659 3.26705-6.92437 5.14705-6.83067 5.04382-8.75467 7.44163-8.69215 7.35586-10.6114 10.2629-10.5686 10.1926-12.4822 13.6002-12.4519 13.5425-14.3589 17.442-14.3369 17.3943-16.2364 21.7771-16.2199 21.7371-18.1109 26.5946-18.0983 26.5608-19.9798 31.8843-19.97 31.8553-21.8412 37.6362-21.8334 37.6112-23.6931 43.8409-23.6868 43.819-25.5344 50.4889-25.5292 50.4695-27.3635 57.5709-27.3592 57.5538-29.1793 65.0781-29.1757 65.0627-30.9807 73.0013-30.9777 72.9874-32.7667 81.3316-32.764 81.319-34.536 90.0602-34.5337 90.0487-36.2878 99.1783-36.2858 99.1678-38.021 108.677-38.0192 108.667-39.7346 118.548-39.7324 118.535-43.0997 139.374-43.0973 139.358-46.3741 161.579-46.3721 161.565-49.5507 185.097-49.5491 185.085-52.6219 209.86-52.6206 209.849-55.5801 235.798-55.5789 235.787-58.4176 262.841-58.4167 262.831-61.1269 290.921-61.1261 290.912-63.7004 319.967-63.6997 319.959-66.1305 349.912-66.1298 349.904-68.4096 380.686-68.409 380.678-70.5301 412.219-70.5297 412.212-72.4846 444.444-72.4842 444.436-74.2654 477.289-74.265 477.282-75.865 510.688-75.8647 510.681-77.2758 544.569-77.2755 544.562-78.4903 578.865-78.4901 578.858-79.5009 613.506-79.5006 613.495-80.8803 683.551-80.8801 683.537-81.3534 754.145-81.3534 754.13-81.139 789.469-81.1391 789.455-80.5048 824.725-80.5051 824.712-79.4644 859.843-79.4649 859.83-78.0314 894.754-78.032 894.741-76.2193 929.39-76.2201 929.377-74.0416 963.68-74.0425 963.667-71.5119 997.556-71.513 997.543-68.6438 1030.95-68.6449 1030.94-65.4507 1063.79-65.452 1063.78-61.9462 1096.01-61.9478 1095.99-58.144 1127.54-58.1457 1127.52-54.0575 1158.3-54.0595 1158.29-49.7004 1188.24-49.7027 1188.23-45.0862 1217.28-45.0888 1217.27-40.2286 1245.36-40.2316 1245.34-35.1411 1272.39-35.1445 1272.38-29.8373 1298.33-29.8414 1298.31-24.331 1323.08-24.3359 1323.06-18.6359 1346.59-18.6418 1346.57-12.7657 1368.79-12.7729 1368.76-6.73427 1389.6-6.74079 1389.58-3.66476 1399.46-3.66979 1399.45-0.558209 1408.96-0.563886 1408.94 2.58156 1418.07 2.5751 1418.05 5.75271 1426.79 5.74534 1426.77 8.95342 1435.12 8.94494 1435.09 12.1818 1443.03 12.172 1443.01 15.4359 1450.53 15.4245 1450.51 18.7138 1457.61 18.7003 1457.58 22.0134 1464.25 21.9973 1464.22 25.3324 1470.45 25.3132 1470.42 28.6686 1476.2 28.6454 1476.16 32.0194 1481.48 31.9912 1481.44 35.3821 1486.3 35.3473 1486.25 38.7534 1490.63 38.5723 1490.45 46.002 1496.5 44.5549 1498.27 37.024 1492.14 33.5198 1487.63 30.0974 1482.73 26.6978 1477.37 23.3213 1471.55 19.9687 1465.29 16.6409 1458.59 13.3391 1451.46 10.0645 1443.91 6.81854 1435.95 3.60254 1427.58 0.418027 1418.82-2.73347 1409.68-5.85039 1400.15-8.93224 1390.25-14.9778 1369.39-20.8603 1347.14-26.5657 1323.59-32.0805 1298.79-37.3915 1272.83-42.4852 1245.76-47.3483 1217.65-51.9671 1188.58-56.3283 1158.61-60.4184 1127.82-64.2237 1096.26-67.731 1064.02-70.9265 1031.15-73.7968 997.733-76.3283 963.832-78.5075 929.516-80.3209 894.855-81.7549 859.917-82.796 824.773-83.4305 789.49-83.6451 754.137-83.1717 683.514-81.7918 613.445-80.7807 578.788-79.5657 544.478-78.1542 510.582-76.5539 477.169-74.7723 444.309-72.8169 412.069-70.6953 380.521-68.4149 349.731-65.9835 319.769-63.4084 290.705-60.6973 262.607-57.8576 235.543-54.8968 209.584-51.8226 184.797-48.6422 161.251-45.3633 139.016-41.9936 118.162-40.2763 108.271-38.5393 98.7511-36.7832 89.6106-35.0087 80.8574-33.2169 72.5001-31.4086 64.5469-29.5845 57.0064-27.7455 49.8867-25.8923 43.1963-24.0255 36.943-22.1456 31.135-20.253 25.7801-18.3477 20.8856-16.4292 16.4589-14.4963 12.5065-12.5466 9.03458-10.5753 6.04887-8.57436 3.55514-6.53024 1.5617-4.42447 0.0853612-2.24266-0.838672-0.161198-1.13444ZM47.7781 1483.11 65.4435 1508.27 34.7128 1507.31Z" fill="#000000" fill-rule="nonzero" fill-opacity="1" transform="matrix(-6.12323e-17 -1 -1 6.12323e-17 3741.27 778.444)"/><path d="M0.0891931 1.14236-3.77678 1.4442-3.60765 1.41818-7.46607 2.31102-7.31632 2.26539-11.1596 3.73014-11.0326 3.67267-14.8533 5.69028-14.7485 5.6276-18.5389 8.17901-18.4538 8.11577-22.2065 11.1819-22.1376 11.1209-25.845 14.6827-25.7892 14.6252-29.4437 18.6636-29.3983 18.6103-32.9923 23.1062-32.9551 23.0569-36.4811 27.9913-36.4503 27.9459-39.9008 33.2997-39.875 33.2577-43.2425 39.0119-43.2207 38.9729-46.4975 45.1084-46.479 45.0721-49.6576 51.5697-49.6345 51.5195-55.667 65.5252-55.6428 65.4643-61.1918 80.6901-61.1731 80.6342-66.1783 96.9276-66.1635 96.875-70.5645 114.083-70.5528 114.033-74.2891 132.004-74.2799 131.954-77.2911 150.535-77.2841 150.485-79.5097 169.523-79.5049 169.472-80.8846 188.815-80.882 188.762-81.3554 208.258-81.3553 208.204-81.133 217.961-81.1353 217.91-80.4776 227.649-80.482 227.599-79.4031 237.3-79.4094 237.252-77.9232 246.895-77.9313 246.849-76.0519 256.416-76.0616 256.371-73.8031 265.842-73.8205 265.778-68.2221 284.359-68.2504 284.276-61.3038 302.247-61.3378 302.168-53.1554 319.377-53.1952 319.301-43.8894 335.594-43.9358 335.52-33.6189 350.745-33.6731 350.672-22.4574 364.678-22.5041 364.623-16.5944 371.121-16.629 371.084-10.5366 377.22-10.5743 377.183-4.31351 382.938-4.35471 382.902 2.06059 388.255 2.01549 388.22 8.57123 393.154 8.5218 393.119 15.2039 397.615 15.1497 397.58 21.9442 401.619 21.8848 401.586 28.7775 405.148 28.7125 405.117 35.6895 408.183 35.6186 408.154 42.6658 410.706 42.5888 410.681 49.6923 412.699 49.6093 412.678 56.7548 414.143 56.6663 414.128 63.8399 415.021 63.7464 415.014 70.9341 415.315 78.162 415.598 85.4206 416.438 92.6466 417.815 99.8255 419.711 106.943 422.108 113.986 424.986 120.939 428.327 127.789 432.113 134.522 436.326 141.125 440.948 147.584 445.961 153.895 451.354 165.96 463.163 177.238 476.26 187.609 490.493 196.961 505.721 205.185 521.804 212.166 538.6 217.79 555.957 220.064 564.824 221.957 573.786 223.737 587.092 221.466 587.396 219.691 574.133 219.706 574.218 217.827 565.321 217.838 565.369 215.579 556.561 215.599 556.63 210.001 539.351 210.032 539.437 203.086 522.725 203.124 522.807 194.941 506.805 194.985 506.883 185.679 491.731 185.73 491.806 175.413 477.647 175.471 477.72 164.255 464.696 164.322 464.767 152.32 453.019 152.377 453.071 146.116 447.72 146.158 447.754 139.743 442.776 139.788 442.809 133.232 438.221 133.282 438.253 126.6 434.072 126.653 434.104 119.859 430.348 119.917 430.378 113.024 427.066 113.087 427.094 106.11 424.243 106.178 424.268 99.1304 421.895 99.2034 421.917 92.1001 420.041 92.1781 420.059 85.0326 418.697 85.1155 418.709 77.9419 417.879 78.0289 417.886 70.838 417.605 63.6034 417.301 56.3386 416.397 49.1072 414.915 41.9238 412.874 34.8025 410.296 27.7575 407.2 20.8025 403.606 13.9513 399.534 7.21733 395.003 0.614348 390.033-5.84409 384.643-12.1444 378.853-18.2728 372.681-24.2237 366.138-35.4904 352.069-45.8576 336.769-55.2065 320.4-63.4258 303.114-70.4037 285.062-76.0245 266.407-78.2961 256.88-80.1845 247.267-81.678 237.577-82.7624 227.828-83.4235 218.039-83.647 208.229-83.1724 188.679-81.7889 169.283-79.5573 150.193-76.538 131.562-72.7912 113.541-68.377 96.2807-63.3551 79.9331-57.7847 64.6488-51.7283 50.5875-48.5286 44.0467-45.2316 37.8736-41.8404 32.0789-38.3617 26.6813-34.8016 21.6994-31.1664 17.1519-27.4615 13.0579-23.6921 9.43641-19.8627 6.30755-15.9775 3.69236-12.041 1.6136-8.05914 0.0960326-4.0407-0.83383-0.0891931-1.14236ZM235.981 581.67 224.272 610.099 208.554 583.675Z" fill="#000000" fill-rule="nonzero" fill-opacity="1" transform="matrix(-6.12323e-17 -1 -1 6.12323e-17 2908.1 779.272)"/><path d="M0.0654817 1.14396-3.80044 1.36525-3.67427 1.35098-7.53264 2.00553-7.41594 1.97941-11.2592 3.05325-11.1539 3.01823-14.9745 4.49738-14.8811 4.45636-18.6715 6.32684-18.5897 6.28229-22.3424 8.53012-22.2397 8.4608-29.6014 14.0326-29.4947 13.9411-36.6147 20.8546-36.5344 20.7681-43.3523 28.9116-43.2909 28.8312-49.7462 38.0928-49.6983 38.018-55.7307 48.2858-55.6926 48.2155-61.2416 59.3778-61.2108 59.3106-66.216 71.2555-66.1909 71.1901-70.5919 83.806-70.5714 83.7412-74.3077 96.916-74.2912 96.8507-77.3024 110.473-77.2896 110.406-79.5153 124.364-79.5064 124.294-80.8861 138.475-80.8813 138.402-81.3546 152.695-81.3546 152.622-81.1328 159.775-81.1371 159.706-80.4812 166.845-80.4893 166.779-79.4133 173.89-79.4247 173.827-77.9426 180.896-77.957 180.836-76.0827 187.849-76.0998 187.792-73.8474 194.735-73.8771 194.654-68.2939 208.276-68.3399 208.178-61.4123 221.353-61.4643 221.264-53.3043 233.879-53.3615 233.799-44.0811 245.744-44.1434 245.67-33.8546 256.832-33.9223 256.765-22.7372 267.033-22.8108 266.971-10.8415 276.232-10.9222 276.175 1.71939 284.319 1.63045 284.267 14.8322 291.18 14.7337 291.135 28.3836 296.706 28.3028 296.677 35.2608 298.925 35.2033 298.908 42.2313 300.778 42.1708 300.764 49.2548 302.243 49.1914 302.232 56.3174 303.305 56.2511 303.297 63.4052 303.952 63.3361 303.948 70.5042 304.169 70.431 304.169 84.7531 303.696 84.6802 303.701 98.8903 302.321 98.821 302.33 112.807 300.104 112.74 300.117 126.39 297.106 126.325 297.122 139.527 293.386 139.462 293.406 152.104 289.005 152.038 289.03 164.008 284.025 163.94 284.056 175.126 278.507 175.055 278.545 185.344 272.512 185.269 272.56 194.55 266.105 194.469 266.166 202.629 259.348 202.543 259.429 209.471 252.309 209.298 252.538 214.368 243.692 216.357 244.832 211.214 253.803 204.144 261.069 195.9 267.957 186.541 274.467 176.18 280.542 164.926 286.125 152.89 291.158 140.183 295.582 126.917 299.336 113.201 302.362 99.1466 304.598 84.8653 305.985 70.4701 306.461 63.2308 306.237 56.009 305.577 48.818 304.493 41.6719 303.001 34.5849 301.115 27.5574 298.844 13.8172 293.236 0.521664 286.273-12.2048 278.075-24.2514 268.754-35.5072 258.421-45.8612 247.188-55.2016 235.166-63.4166 222.465-70.3937 209.196-76.0139 195.484-78.2889 188.47-80.1791 181.397-81.6743 174.265-82.7602 167.088-83.4223 159.881-83.6463 152.656-83.1705 138.29-81.7839 124.037-79.5474 110.011-76.5216 96.3232-72.7668 83.0832-68.3432 70.4022-63.3102 58.3908-57.7269 47.1595-51.6517 36.8188-45.1419 27.4793-38.2536 19.2517-31.0406 12.2479-23.5732 6.59606-19.7274 4.2924-15.8494 2.37871-11.9294 0.861069-7.97497-0.243836-3.99488-0.919037-0.0654817-1.14396ZM200.879 243.706 223.438 222.815 226.616 253.396Z" fill="#000000" fill-rule="nonzero" fill-opacity="1" transform="matrix(-6.12323e-17 -1 -1 6.12323e-17 4573.81 778.438)"/></g></svg>